<svg xmlns="http://www.w3.org/2000/svg" width="1280" height="1600" viewBox="0 0 1280 1600">
  <defs>
    <linearGradient id="bg" x1="0" y1="0" x2="1" y2="1">
      <stop offset="0%" stop-color="#081024"/>
      <stop offset="100%" stop-color="#13223e"/>
    </linearGradient>
    <linearGradient id="gold" x1="0" y1="0" x2="1" y2="1">
      <stop offset="0%" stop-color="#d3b46c"/>
      <stop offset="100%" stop-color="#f2db93"/>
    </linearGradient>
    <linearGradient id="panel" x1="0" y1="0" x2="0" y2="1">
      <stop offset="0%" stop-color="#18243d"/>
      <stop offset="100%" stop-color="#111a2b"/>
    </linearGradient>
    <filter id="shadow" x="-20%" y="-20%" width="140%" height="140%">
      <feDropShadow dx="0" dy="16" stdDeviation="24" flood-color="#000000" flood-opacity="0.4"/>
    </filter>
    <style>
      .title{font:700 86px/1.1 Arial, Helvetica, sans-serif; fill:#ffffff}
      .title2{font:700 86px/1.1 Arial, Helvetica, sans-serif; fill:url(#gold)}
      .sub{font:400 34px/1.35 Arial, Helvetica, sans-serif; fill:#a8b5cc}
      .small{font:700 20px/1 Arial, Helvetica, sans-serif; fill:#d8c07a; letter-spacing:4px}
      .ui{font:700 22px/1 Arial, Helvetica, sans-serif; fill:#d8dee9}
      .ui2{font:700 26px/1 Arial, Helvetica, sans-serif; fill:#ffffff}
      .label{font:700 24px/1 Arial, Helvetica, sans-serif; fill:#d0b46f; letter-spacing:3px}
      .muted{font:400 20px/1.35 Arial, Helvetica, sans-serif; fill:#8ea0b8}
    </style>
  </defs>
  <rect width="1280" height="1600" fill="url(#bg)"/>
  <circle cx="220" cy="220" r="160" fill="#0f1730" opacity=".9"/>
  <circle cx="1140" cy="160" r="170" fill="#1b2a46" opacity=".75"/>
  <circle cx="124" cy="1220" r="200" fill="#18223d" opacity=".7"/>
  <rect x="64" y="62" width="68" height="68" rx="16" fill="url(#gold)"/>
  <text x="98" y="108" text-anchor="middle" class="ui" fill="#081024">VIP</text>
  <text x="150" y="108" class="ui2">Rei das <tspan fill="#d3b46c">Ofertas</tspan></text>
  <g transform="translate(980 58)">
    <rect x="0" y="0" width="240" height="48" rx="24" fill="#1a2435" stroke="#39506f"/>
    <circle cx="34" cy="24" r="6" fill="#2ecc71"/>
    <text x="56" y="31" class="ui">1 CONVERTIDOS</text>
  </g>

  <text x="640" y="260" text-anchor="middle" class="title">Conversor</text>
  <text x="900" y="260" text-anchor="middle" class="title2">Magico</text>
  <text x="640" y="320" text-anchor="middle" class="sub">Transforme qualquer link em uma <tspan fill="#ffffff" font-weight="700">Oferta VIP</tspan> com comparativo de</text>
  <text x="640" y="365" text-anchor="middle" class="sub">precos e busca automatica de cupons.</text>

  <g filter="url(#shadow)">
    <rect x="64" y="450" width="1152" height="910" rx="40" fill="#111a2e" opacity=".96" stroke="#2b3650"/>
    <rect x="112" y="505" width="1056" height="82" rx="20" fill="#242f45" stroke="#3b4a69"/>
    <text x="148" y="556" class="ui2">https://meli.la/2YYQvLX</text>
    <text x="1120" y="556" text-anchor="end" class="ui" fill="#8fa1b6">🔗</text>

    <rect x="112" y="620" width="1056" height="80" rx="20" fill="url(#gold)"/>
    <text x="640" y="671" text-anchor="middle" class="ui2" fill="#111a2e">✨ GERAR OFERTA VIP</text>

    <line x1="112" y1="740" x2="1168" y2="740" stroke="#2c3954"/>
    <text x="640" y="790" text-anchor="middle" class="small">PROCESSAMENTO INTELIGENTE</text>

    <g transform="translate(112 840)">
      <rect x="0" y="0" width="62" height="44" rx="10" fill="#222b3e" stroke="#39465e"/>
      <text x="31" y="29" text-anchor="middle" class="ui">1</text>
      <text x="82" y="29" class="ui" fill="#8fa1b6">EXTRACAO</text>
    </g>
    <g transform="translate(394 840)">
      <rect x="0" y="0" width="62" height="44" rx="10" fill="#222b3e" stroke="#39465e"/>
      <text x="31" y="29" text-anchor="middle" class="ui">2</text>
      <text x="82" y="29" class="ui" fill="#8fa1b6">BUSCA</text>
    </g>
    <g transform="translate(642 840)">
      <rect x="0" y="0" width="62" height="44" rx="10" fill="#222b3e" stroke="#39465e"/>
      <text x="31" y="29" text-anchor="middle" class="ui">3</text>
      <text x="82" y="29" class="ui" fill="#8fa1b6">CUPONS</text>
    </g>
    <g transform="translate(900 840)">
      <rect x="0" y="0" width="62" height="44" rx="10" fill="#222b3e" stroke="#39465e"/>
      <text x="31" y="29" text-anchor="middle" class="ui">4</text>
      <text x="82" y="29" class="ui2">RESULTADO</text>
    </g>

    <rect x="112" y="915" width="1056" height="176" rx="20" fill="#090d18" stroke="#1e273a"/>
    <text x="140" y="945" class="label" style="font-size:16px;">DEV EXECUTION LOG</text>
    <circle cx="1138" cy="940" r="5" fill="#db4444"/>
    <circle cx="1158" cy="940" r="5" fill="#d8aa2c"/>
    <circle cx="1178" cy="940" r="5" fill="#2e9f5e"/>
    <text x="140" y="980" class="muted">[00:35:04] Solicitando conversao de link...</text>
    <text x="140" y="1010" class="muted">[00:35:04] Iniciando extracao de metadados...</text>
    <text x="140" y="1040" class="muted">[00:35:04] Realizando busca em multiplas lojas...</text>
    <text x="140" y="1070" class="muted">[00:35:17] Validando cupons e promocoes ativas...</text>
    <text x="140" y="1100" fill="#7ee787" class="muted">[00:35:18] Preparando card VIP final...</text>

    <line x1="112" y1="1148" x2="1168" y2="1148" stroke="#2c3954"/>
    <text x="640" y="1190" text-anchor="middle" class="small">MELHOR OFERTA ENCONTRADA</text>

    <rect x="112" y="1230" width="500" height="290" rx="30" fill="#ffffff"/>
    <rect x="112" y="1230" width="500" height="290" rx="30" fill="none" stroke="#e7e7e7"/>
    <rect x="128" y="1246" width="110" height="42" rx="21" fill="#e33"/>
    <text x="183" y="1274" text-anchor="middle" class="ui2" style="font-size:24px;">-50% OFF</text>
    <rect x="180" y="1328" width="350" height="140" rx="10" fill="#f6f6f6"/>
    <rect x="290" y="1316" width="120" height="164" rx="18" fill="#fbfbfb" stroke="#dedede"/>
    <rect x="362" y="1318" width="86" height="160" rx="18" fill="#111"/>
    <rect x="244" y="1318" width="76" height="160" rx="18" fill="#f5f5f5" stroke="#ddd"/>
    <text x="640" y="1264" class="ui" fill="#d3b46c">MERCADO LIVRE</text>
    <text x="640" y="1316" class="ui2" style="font-size:40px;">Copo Termico Gigante 1,2l</text>
    <text x="640" y="1368" class="ui2" style="font-size:40px;">Inox Com Tampa E Inox</text>
    <text x="640" y="1420" class="ui2" style="font-size:40px;">Canudo - R$ 49.99</text>
    <text x="640" y="1492" class="ui2" style="font-size:62px;">R$ 49.99</text>
    <text x="840" y="1498" class="muted" style="font-size:34px;text-decoration:line-through;">R$ 99.98</text>
    <rect x="642" y="1530" width="256" height="66" rx="18" fill="#fff"/>
    <text x="770" y="1572" text-anchor="middle" class="ui" fill="#14213a">COPIAR OFERTA</text>
    <rect x="912" y="1530" width="256" height="66" rx="18" fill="url(#gold)"/>
    <text x="1040" y="1572" text-anchor="middle" class="ui2" fill="#14213a">ABRIR LOJA</text>
  </g>
</svg>
